<svg xmlns="http://www.w3.org/2000/svg" xmlns:xlink="http://www.w3.org/1999/xlink" width="523" height="470" version="1.1" viewBox="0 0 523 470"><title>BlueprintLogo</title><desc>Created with Sketch.</desc><defs><path id="path-1" d="M95.5723101,7 L491,7 L491,477 L366.926937,477 L253.620642,280.747742 C266.429251,273.05556 275,259.028683 275,243 C275,218.699471 255.300529,199 231,199 C223.239964,199 215.949123,201.008864 209.61915,204.534921 L95.5723101,7 Z"/><circle id="path-3" cx="231" cy="243" r="44"/><mask id="mask-4" width="88" height="88" x="0" y="0" fill="#fff" maskContentUnits="userSpaceOnUse" maskUnits="objectBoundingBox"><use xlink:href="#path-3"/></mask></defs><g id="Page-1" fill="none" fill-rule="evenodd" stroke="none" stroke-width="1"><g id="Blueprint-w/-Background" transform="translate(0.000000, -7.000000)"><g id="Group-5" transform="translate(32.000000, 0.000000)"><g id="Group-4" fill-rule="nonzero"><ellipse id="Oval" cx="229.5" cy="241.5" stroke="#00D8FF" stroke-width="23" rx="86.5" ry="229.5" transform="translate(229.500000, 241.500000) rotate(90.000000) translate(-229.500000, -241.500000)"/><ellipse id="Oval" cx="229.5" cy="242.5" stroke="#00D8FF" stroke-width="23" rx="86.5" ry="229.5" transform="translate(229.500000, 242.500000) rotate(30.000000) translate(-229.500000, -242.500000)"/><ellipse id="Oval" cx="229.661" cy="242.003" stroke="#00D8FF" stroke-width="23" rx="86.5" ry="229.5" transform="translate(229.661197, 242.002830) rotate(-30.000000) translate(-229.661197, -242.002830)"/><circle id="Oval-2" cx="231" cy="244" r="44" fill="#00D8FF"/></g><mask id="mask-2" fill="#fff"><use xlink:href="#path-1"/></mask><g id="Lines" stroke-dasharray="2 8" stroke-linecap="square" mask="url(#mask-2)"><g transform="translate(60.000000, -4.000000)"><g id="H-Lines" transform="translate(65.000000, 0.000000)"><path id="Line" stroke="#00D8FF" stroke-width="2.5" d="M351,0 L351,488"/><path id="Line-Copy-8" stroke="#00D8FF" stroke-width="2.5" d="M316,0 L316,488"/><path id="Line-Copy-7" stroke="#00D8FF" stroke-width="2.5" d="M281.25,0 L281.25,488"/><path id="Line" stroke="#00D8FF" stroke-width="2.5" d="M246,0 L246,488"/><path id="Line-Copy-6" stroke="#00D8FF" stroke-width="2.5" d="M211,0 L211,488"/><path id="Line-Copy-5" stroke="#00D8FF" stroke-width="2.5" d="M176,0 L176,488"/><path id="Line-Copy-4" stroke="#00D8FF" stroke-width="2.5" d="M176,0 L176,488"/><path id="Line-Copy-3" stroke="#00D8FF" stroke-width="2.5" d="M141,0 L141,488"/><path id="Line-Copy-2" stroke="#00D8FF" stroke-width="2.5" d="M106,0 L106,488"/><path id="Line" stroke="#00D8FF" stroke-width="2.5" d="M71,0 L71,488"/><path id="Line" stroke="#00D8FF" stroke-width="2.5" d="M36,0 L36,488"/><path id="Line-Copy" stroke="#00D8FF" stroke-width="2.5" d="M1,0 L1,488"/></g><g id="V-Lines" transform="translate(224.500000, 248.500000) rotate(90.000000) translate(-224.500000, -248.500000) translate(-4.000000, 24.000000)"><path id="Line-2-Copy-5" stroke="#00D8FF" stroke-width="2.5" d="M421.5,449 L421.5,0.5"/><path id="Line-2-Copy-12" stroke="#00D8FF" stroke-width="2.5" d="M456.5,449 L456.5,0.5"/><path id="Line-2-Copy-11" stroke="#00D8FF" stroke-width="2.5" d="M386.5,449 L386.5,0.5"/><path id="Line-2-Copy-10" stroke="#00D8FF" stroke-width="2.5" d="M351.5,449 L351.5,0.5"/><path id="Line-2-Copy-9" stroke="#00D8FF" stroke-width="2.5" d="M316.5,449 L316.5,0.5"/><path id="Line-2-Copy-8" stroke="#00D8FF" stroke-width="2.5" d="M280.5,449 L281.5,0.5"/><path id="Line-2-Copy-7" stroke="#00D8FF" stroke-width="2.5" d="M245.5,449 L245.5,0.5"/><path id="Line-2-Copy-6" stroke="#00D8FF" stroke-width="2.5" d="M210.5,449 L210.5,0.5"/><path id="Line-2-Copy-4" stroke="#00D8FF" stroke-width="2.5" d="M175.5,449 L175.5,0.5"/><path id="Line-2-Copy-3" stroke="#00D8FF" stroke-width="2.5" d="M140.5,449 L140.5,0.5"/><path id="Line-2-Copy-2" stroke="#00D8FF" stroke-width="2.5" d="M105.5,449 L105.5,0.5"/><path id="Line-2-Copy" stroke="#00D8FF" stroke-width="2.5" d="M70.5,449 L70.5,0.5"/><path id="Line-2" stroke="#00D8FF" stroke-width="2.5" d="M35.5,449 L35.5,0.5"/><path id="Line-2" stroke="#00D8FF" stroke-width="2.5" d="M0.5,449 L0.5,0.5"/></g></g></g><g id="Group-3" fill-rule="nonzero" mask="url(#mask-2)"><ellipse id="Oval" cx="229.5" cy="241.5" stroke="#00D8FF" stroke-width="23" rx="86.5" ry="229.5" transform="translate(229.500000, 241.500000) rotate(90.000000) translate(-229.500000, -241.500000)"/><ellipse id="Oval" cx="229.5" cy="241.5" stroke="#FFF" stroke-width="15" rx="86.5" ry="229.5" transform="translate(229.500000, 241.500000) rotate(90.000000) translate(-229.500000, -241.500000)"/><ellipse id="Oval" cx="229.661" cy="242.003" stroke="#00D8FF" stroke-width="23" rx="86.5" ry="229.5" transform="translate(229.661197, 242.002830) rotate(30.000000) translate(-229.661197, -242.002830)"/><ellipse id="Oval" cx="229.661" cy="242.003" stroke="#FFF" stroke-width="15" rx="86.5" ry="229.5" transform="translate(229.661197, 242.002830) rotate(30.000000) translate(-229.661197, -242.002830)"/><ellipse id="Oval" cx="229.661" cy="242.003" stroke="#00D8FF" stroke-width="23" rx="86.5" ry="229.5" transform="translate(229.661197, 242.002830) rotate(-30.000000) translate(-229.661197, -242.002830)"/><ellipse id="Oval" cx="229.661" cy="242.003" stroke="#FFF" stroke-width="15" rx="86.5" ry="229.5" transform="translate(229.661197, 242.002830) rotate(-30.000000) translate(-229.661197, -242.002830)"/><use id="Oval-2" stroke="#FFF" stroke-dasharray="10" stroke-width="20" mask="url(#mask-4)" xlink:href="#path-3"/><circle id="Oval-2" cx="231" cy="243" r="39" fill="#FFF"/></g></g></g></g></svg>